{
    "asset" : {
        "generator" : "Khronos glTF Blender I/O v1.5.17",
        "version" : "2.0"
    },
    "scene" : 0,
    "scenes" : [
        {
            "name" : "Scene",
            "nodes" : [
                0
            ]
        }
    ],
    "nodes" : [
        {
            "mesh" : 0,
            "name" : "Plane",
            "rotation" : [
                0,
                0.22809860110282898,
                0,
                0.9736380577087402
            ],
            "scale" : [
                11.388757705688477,
                106.71636199951172,
                42.63310623168945
            ],
            "translation" : [
                -90.49099731445312,
                0.4995265007019043,
                22.884557723999023
            ]
        }
    ],
    "animations" : [
        {
            "channels" : [
                {
                    "sampler" : 0,
                    "target" : {
                        "node" : 0,
                        "path" : "weights"
                    }
                }
            ],
            "name" : "Key.002Action",
            "samplers" : [
                {
                    "input" : 12,
                    "interpolation" : "LINEAR",
                    "output" : 13
                }
            ]
        }
    ],
    "materials" : [
        {
            "doubleSided" : true,
            "emissiveFactor" : [
                0.29613834619522095,
                0.26635557413101196,
                0.20155632495880127
            ],
            "name" : "Material.005",
            "pbrMetallicRoughness" : {}
        }
    ],
    "meshes" : [
        {
            "extras" : {
                "targetNames" : [
                    "windows",
                    "extrude",
                    "solution",
                    "past"
                ]
            },
            "name" : "Plane",
            "primitives" : [
                {
                    "attributes" : {
                        "POSITION" : 0,
                        "NORMAL" : 1,
                        "TEXCOORD_0" : 2
                    },
                    "indices" : 3,
                    "material" : 0,
                    "targets" : [
                        {
                            "POSITION" : 4,
                            "NORMAL" : 5
                        },
                        {
                            "POSITION" : 6,
                            "NORMAL" : 7
                        },
                        {
                            "POSITION" : 8,
                            "NORMAL" : 9
                        },
                        {
                            "POSITION" : 10,
                            "NORMAL" : 11
                        }
                    ]
                }
            ],
            "weights" : [
                0,
                1,
                0,
                1
            ]
        }
    ],
    "accessors" : [
        {
            "bufferView" : 0,
            "componentType" : 5126,
            "count" : 215,
            "max" : [
                2.713604688644409,
                0.1323995143175125,
                1
            ],
            "min" : [
                -2.0126523971557617,
                -0.006230564787983894,
                -1.8564032316207886
            ],
            "type" : "VEC3"
        },
        {
            "bufferView" : 1,
            "componentType" : 5126,
            "count" : 215,
            "type" : "VEC3"
        },
        {
            "bufferView" : 2,
            "componentType" : 5126,
            "count" : 215,
            "type" : "VEC2"
        },
        {
            "bufferView" : 3,
            "componentType" : 5123,
            "count" : 396,
            "type" : "SCALAR"
        },
        {
            "bufferView" : 4,
            "componentType" : 5126,
            "count" : 215,
            "max" : [
                0,
                0,
                0
            ],
            "min" : [
                -0.17019301652908325,
                0,
                0
            ],
            "type" : "VEC3"
        },
        {
            "bufferView" : 5,
            "componentType" : 5126,
            "count" : 215,
            "type" : "VEC3"
        },
        {
            "bufferView" : 6,
            "componentType" : 5126,
            "count" : 215,
            "max" : [
                0,
                0.003346504643559456,
                1.1920928955078125e-07
            ],
            "min" : [
                -2.9802322387695312e-08,
                -0.13389329612255096,
                -3.5762786865234375e-07
            ],
            "type" : "VEC3"
        },
        {
            "bufferView" : 7,
            "componentType" : 5126,
            "count" : 215,
            "type" : "VEC3"
        },
        {
            "bufferView" : 8,
            "componentType" : 5126,
            "count" : 215,
            "max" : [
                0,
                0,
                0.7517423629760742
            ],
            "min" : [
                0,
                -0.06733588129281998,
                -0.35209882259368896
            ],
            "type" : "VEC3"
        },
        {
            "bufferView" : 9,
            "componentType" : 5126,
            "count" : 215,
            "type" : "VEC3"
        },
        {
            "bufferView" : 10,
            "componentType" : 5126,
            "count" : 215,
            "max" : [
                2.0270185470581055,
                0.000795390922576189,
                1.1712819337844849
            ],
            "min" : [
                -2.671480655670166,
                -0.1376323401927948,
                -0.1721680760383606
            ],
            "type" : "VEC3"
        },
        {
            "bufferView" : 11,
            "componentType" : 5126,
            "count" : 215,
            "type" : "VEC3"
        },
        {
            "bufferView" : 12,
            "componentType" : 5126,
            "count" : 121,
            "max" : [
                5
            ],
            "min" : [
                0
            ],
            "type" : "SCALAR"
        },
        {
            "bufferView" : 13,
            "componentType" : 5126,
            "count" : 484,
            "type" : "SCALAR"
        }
    ],
    "bufferViews" : [
        {
            "buffer" : 0,
            "byteLength" : 2580,
            "byteOffset" : 0
        },
        {
            "buffer" : 0,
            "byteLength" : 2580,
            "byteOffset" : 2580
        },
        {
            "buffer" : 0,
            "byteLength" : 1720,
            "byteOffset" : 5160
        },
        {
            "buffer" : 0,
            "byteLength" : 792,
            "byteOffset" : 6880
        },
        {
            "buffer" : 0,
            "byteLength" : 2580,
            "byteOffset" : 7672
        },
        {
            "buffer" : 0,
            "byteLength" : 2580,
            "byteOffset" : 10252
        },
        {
            "buffer" : 0,
            "byteLength" : 2580,
            "byteOffset" : 12832
        },
        {
            "buffer" : 0,
            "byteLength" : 2580,
            "byteOffset" : 15412
        },
        {
            "buffer" : 0,
            "byteLength" : 2580,
            "byteOffset" : 17992
        },
        {
            "buffer" : 0,
            "byteLength" : 2580,
            "byteOffset" : 20572
        },
        {
            "buffer" : 0,
            "byteLength" : 2580,
            "byteOffset" : 23152
        },
        {
            "buffer" : 0,
            "byteLength" : 2580,
            "byteOffset" : 25732
        },
        {
            "buffer" : 0,
            "byteLength" : 484,
            "byteOffset" : 28312
        },
        {
            "buffer" : 0,
            "byteLength" : 1936,
            "byteOffset" : 28796
        }
    ],
    "buffers" : [
        {
            "byteLength" : 30732,
            "uri" : "data:application/octet-stream;base64,"
        }
    ]
}
