{
    "asset" : {
        "generator" : "Khronos glTF Blender I/O v1.5.17",
        "version" : "2.0"
    },
    "scene" : 0,
    "scenes" : [
        {
            "name" : "Scene",
            "nodes" : [
                0
            ]
        }
    ],
    "nodes" : [
        {
            "mesh" : 0,
            "name" : "Plane.001",
            "rotation" : [
                0,
                0.16423863172531128,
                0,
                0.9864206314086914
            ],
            "scale" : [
                7.101537704467773,
                7.101537704467773,
                7.101537704467773
            ],
            "translation" : [
                34.408294677734375,
                0.4506983757019043,
                -45.352413177490234
            ]
        }
    ],
    "animations" : [
        {
            "channels" : [
                {
                    "sampler" : 0,
                    "target" : {
                        "node" : 0,
                        "path" : "weights"
                    }
                }
            ],
            "name" : "Key.003Action",
            "samplers" : [
                {
                    "input" : 12,
                    "interpolation" : "LINEAR",
                    "output" : 13
                }
            ]
        }
    ],
    "materials" : [
        {
            "doubleSided" : true,
            "emissiveFactor" : [
                0.3093282878398895,
                0.28652963042259216,
                0.235346719622612
            ],
            "name" : "Material.004",
            "pbrMetallicRoughness" : {}
        }
    ],
    "meshes" : [
        {
            "extras" : {
                "targetNames" : [
                    "Key 1",
                    "Key 2",
                    "Key 3",
                    "Key 4"
                ]
            },
            "name" : "Plane.001",
            "primitives" : [
                {
                    "attributes" : {
                        "POSITION" : 0,
                        "NORMAL" : 1,
                        "TEXCOORD_0" : 2
                    },
                    "indices" : 3,
                    "material" : 0,
                    "targets" : [
                        {
                            "POSITION" : 4,
                            "NORMAL" : 5
                        },
                        {
                            "POSITION" : 6,
                            "NORMAL" : 7
                        },
                        {
                            "POSITION" : 8,
                            "NORMAL" : 9
                        },
                        {
                            "POSITION" : 10,
                            "NORMAL" : 11
                        }
                    ]
                }
            ],
            "weights" : [
                1,
                1,
                1,
                1
            ]
        }
    ],
    "accessors" : [
        {
            "bufferView" : 0,
            "componentType" : 5126,
            "count" : 18,
            "max" : [
                33.79475021362305,
                -4.263256414560601e-14,
                25.866619110107422
            ],
            "min" : [
                -35.06205368041992,
                -7.105427357601002e-14,
                1.7937474250793457
            ],
            "type" : "VEC3"
        },
        {
            "bufferView" : 1,
            "componentType" : 5126,
            "count" : 18,
            "type" : "VEC3"
        },
        {
            "bufferView" : 2,
            "componentType" : 5126,
            "count" : 18,
            "type" : "VEC2"
        },
        {
            "bufferView" : 3,
            "componentType" : 5123,
            "count" : 30,
            "type" : "SCALAR"
        },
        {
            "bufferView" : 4,
            "componentType" : 5126,
            "count" : 18,
            "max" : [
                66.71577453613281,
                0,
                0.0009059906005859375
            ],
            "min" : [
                0,
                0,
                0
            ],
            "type" : "VEC3"
        },
        {
            "bufferView" : 5,
            "componentType" : 5126,
            "count" : 18,
            "type" : "VEC3"
        },
        {
            "bufferView" : 6,
            "componentType" : 5126,
            "count" : 18,
            "max" : [
                0.8840540647506714,
                0,
                0
            ],
            "min" : [
                0,
                0,
                -23.965665817260742
            ],
            "type" : "VEC3"
        },
        {
            "bufferView" : 7,
            "componentType" : 5126,
            "count" : 18,
            "type" : "VEC3"
        },
        {
            "bufferView" : 8,
            "componentType" : 5126,
            "count" : 18,
            "max" : [
                0,
                0,
                0
            ],
            "min" : [
                -1.2785282135009766,
                0,
                -18.27899932861328
            ],
            "type" : "VEC3"
        },
        {
            "bufferView" : 9,
            "componentType" : 5126,
            "count" : 18,
            "type" : "VEC3"
        },
        {
            "bufferView" : 10,
            "componentType" : 5126,
            "count" : 18,
            "max" : [
                0,
                0,
                0
            ],
            "min" : [
                -17.848384857177734,
                0,
                -0.9129247665405273
            ],
            "type" : "VEC3"
        },
        {
            "bufferView" : 11,
            "componentType" : 5126,
            "count" : 18,
            "type" : "VEC3"
        },
        {
            "bufferView" : 12,
            "componentType" : 5126,
            "count" : 96,
            "max" : [
                3.9583333333333335
            ],
            "min" : [
                0
            ],
            "type" : "SCALAR"
        },
        {
            "bufferView" : 13,
            "componentType" : 5126,
            "count" : 384,
            "type" : "SCALAR"
        }
    ],
    "bufferViews" : [
        {
            "buffer" : 0,
            "byteLength" : 216,
            "byteOffset" : 0
        },
        {
            "buffer" : 0,
            "byteLength" : 216,
            "byteOffset" : 216
        },
        {
            "buffer" : 0,
            "byteLength" : 144,
            "byteOffset" : 432
        },
        {
            "buffer" : 0,
            "byteLength" : 60,
            "byteOffset" : 576
        },
        {
            "buffer" : 0,
            "byteLength" : 216,
            "byteOffset" : 636
        },
        {
            "buffer" : 0,
            "byteLength" : 216,
            "byteOffset" : 852
        },
        {
            "buffer" : 0,
            "byteLength" : 216,
            "byteOffset" : 1068
        },
        {
            "buffer" : 0,
            "byteLength" : 216,
            "byteOffset" : 1284
        },
        {
            "buffer" : 0,
            "byteLength" : 216,
            "byteOffset" : 1500
        },
        {
            "buffer" : 0,
            "byteLength" : 216,
            "byteOffset" : 1716
        },
        {
            "buffer" : 0,
            "byteLength" : 216,
            "byteOffset" : 1932
        },
        {
            "buffer" : 0,
            "byteLength" : 216,
            "byteOffset" : 2148
        },
        {
            "buffer" : 0,
            "byteLength" : 384,
            "byteOffset" : 2364
        },
        {
            "buffer" : 0,
            "byteLength" : 1536,
            "byteOffset" : 2748
        }
    ],
    "buffers" : [
        {
            "byteLength" : 4284,
            "uri" : "data:application/octet-stream;base64,"
        }
    ]
}
