{
    "asset" : {
        "generator" : "Khronos glTF Blender I/O v1.5.17",
        "version" : "2.0"
    },
    "scene" : 0,
    "scenes" : [
        {
            "name" : "Scene",
            "nodes" : [
                0
            ]
        }
    ],
    "nodes" : [
        {
            "mesh" : 0,
            "name" : "Plane.002",
            "rotation" : [
                0,
                0.16476982831954956,
                0,
                0.9863320589065552
            ],
            "scale" : [
                268.8311767578125,
                1,
                1
            ],
            "translation" : [
                14.464381217956543,
                1.2166200876235962,
                -22.916446685791016
            ]
        }
    ],
    "animations" : [
        {
            "channels" : [
                {
                    "sampler" : 0,
                    "target" : {
                        "node" : 0,
                        "path" : "weights"
                    }
                }
            ],
            "name" : "Key.004Action",
            "samplers" : [
                {
                    "input" : 16,
                    "interpolation" : "LINEAR",
                    "output" : 17
                }
            ]
        }
    ],
    "materials" : [
        {
            "doubleSided" : true,
            "emissiveFactor" : [
                0.30946892499923706,
                0.2874408960342407,
                0.2345506250858307
            ],
            "name" : "Material.001",
            "pbrMetallicRoughness" : {}
        }
    ],
    "meshes" : [
        {
            "extras" : {
                "targetNames" : [
                    "Key 1",
                    "Key 2",
                    "Key 3",
                    "0",
                    "0.001",
                    "0.002"
                ]
            },
            "name" : "Plane.002",
            "primitives" : [
                {
                    "attributes" : {
                        "POSITION" : 0,
                        "NORMAL" : 1,
                        "TEXCOORD_0" : 2
                    },
                    "indices" : 3,
                    "material" : 0,
                    "targets" : [
                        {
                            "POSITION" : 4,
                            "NORMAL" : 5
                        },
                        {
                            "POSITION" : 6,
                            "NORMAL" : 7
                        },
                        {
                            "POSITION" : 8,
                            "NORMAL" : 9
                        },
                        {
                            "POSITION" : 10,
                            "NORMAL" : 11
                        },
                        {
                            "POSITION" : 12,
                            "NORMAL" : 13
                        },
                        {
                            "POSITION" : 14,
                            "NORMAL" : 15
                        }
                    ]
                }
            ],
            "weights" : [
                1,
                1,
                1,
                1,
                1,
                1
            ]
        }
    ],
    "accessors" : [
        {
            "bufferView" : 0,
            "componentType" : 5126,
            "count" : 16,
            "max" : [
                1.0000001192092896,
                0,
                169.45794677734375
            ],
            "min" : [
                -1.0000001192092896,
                0,
                -82.71482849121094
            ],
            "type" : "VEC3"
        },
        {
            "bufferView" : 1,
            "componentType" : 5126,
            "count" : 16,
            "type" : "VEC3"
        },
        {
            "bufferView" : 2,
            "componentType" : 5126,
            "count" : 16,
            "type" : "VEC2"
        },
        {
            "bufferView" : 3,
            "componentType" : 5123,
            "count" : 24,
            "type" : "SCALAR"
        },
        {
            "bufferView" : 4,
            "componentType" : 5126,
            "count" : 16,
            "max" : [
                1.9997702836990356,
                0.06513643264770508,
                0
            ],
            "min" : [
                0,
                0,
                -0.00170820951461792
            ],
            "type" : "VEC3"
        },
        {
            "bufferView" : 5,
            "componentType" : 5126,
            "count" : 16,
            "type" : "VEC3"
        },
        {
            "bufferView" : 6,
            "componentType" : 5126,
            "count" : 16,
            "max" : [
                0.02442515641450882,
                0,
                0
            ],
            "min" : [
                0,
                0,
                -169.4558563232422
            ],
            "type" : "VEC3"
        },
        {
            "bufferView" : 7,
            "componentType" : 5126,
            "count" : 16,
            "type" : "VEC3"
        },
        {
            "bufferView" : 8,
            "componentType" : 5126,
            "count" : 16,
            "max" : [
                0,
                0,
                178.40286254882812
            ],
            "min" : [
                -0.0025207698345184326,
                0,
                0
            ],
            "type" : "VEC3"
        },
        {
            "bufferView" : 9,
            "componentType" : 5126,
            "count" : 16,
            "type" : "VEC3"
        },
        {
            "bufferView" : 10,
            "componentType" : 5126,
            "count" : 16,
            "max" : [
                1.0388946533203125,
                0.634229838848114,
                0
            ],
            "min" : [
                0,
                0,
                -0.06476593017578125
            ],
            "type" : "VEC3"
        },
        {
            "bufferView" : 11,
            "componentType" : 5126,
            "count" : 16,
            "type" : "VEC3"
        },
        {
            "bufferView" : 12,
            "componentType" : 5126,
            "count" : 16,
            "max" : [
                0,
                0,
                0
            ],
            "min" : [
                0,
                0,
                0
            ],
            "type" : "VEC3"
        },
        {
            "bufferView" : 13,
            "componentType" : 5126,
            "count" : 16,
            "type" : "VEC3"
        },
        {
            "bufferView" : 14,
            "componentType" : 5126,
            "count" : 16,
            "max" : [
                0,
                0,
                0
            ],
            "min" : [
                0,
                0,
                0
            ],
            "type" : "VEC3"
        },
        {
            "bufferView" : 15,
            "componentType" : 5126,
            "count" : 16,
            "type" : "VEC3"
        },
        {
            "bufferView" : 16,
            "componentType" : 5126,
            "count" : 96,
            "max" : [
                3.9583333333333335
            ],
            "min" : [
                0
            ],
            "type" : "SCALAR"
        },
        {
            "bufferView" : 17,
            "componentType" : 5126,
            "count" : 576,
            "type" : "SCALAR"
        }
    ],
    "bufferViews" : [
        {
            "buffer" : 0,
            "byteLength" : 192,
            "byteOffset" : 0
        },
        {
            "buffer" : 0,
            "byteLength" : 192,
            "byteOffset" : 192
        },
        {
            "buffer" : 0,
            "byteLength" : 128,
            "byteOffset" : 384
        },
        {
            "buffer" : 0,
            "byteLength" : 48,
            "byteOffset" : 512
        },
        {
            "buffer" : 0,
            "byteLength" : 192,
            "byteOffset" : 560
        },
        {
            "buffer" : 0,
            "byteLength" : 192,
            "byteOffset" : 752
        },
        {
            "buffer" : 0,
            "byteLength" : 192,
            "byteOffset" : 944
        },
        {
            "buffer" : 0,
            "byteLength" : 192,
            "byteOffset" : 1136
        },
        {
            "buffer" : 0,
            "byteLength" : 192,
            "byteOffset" : 1328
        },
        {
            "buffer" : 0,
            "byteLength" : 192,
            "byteOffset" : 1520
        },
        {
            "buffer" : 0,
            "byteLength" : 192,
            "byteOffset" : 1712
        },
        {
            "buffer" : 0,
            "byteLength" : 192,
            "byteOffset" : 1904
        },
        {
            "buffer" : 0,
            "byteLength" : 192,
            "byteOffset" : 2096
        },
        {
            "buffer" : 0,
            "byteLength" : 192,
            "byteOffset" : 2288
        },
        {
            "buffer" : 0,
            "byteLength" : 192,
            "byteOffset" : 2480
        },
        {
            "buffer" : 0,
            "byteLength" : 192,
            "byteOffset" : 2672
        },
        {
            "buffer" : 0,
            "byteLength" : 384,
            "byteOffset" : 2864
        },
        {
            "buffer" : 0,
            "byteLength" : 2304,
            "byteOffset" : 3248
        }
    ],
    "buffers" : [
        {
            "byteLength" : 5552,
            "uri" : "data:application/octet-stream;base64,"
        }
    ]
}
